<?xml version="1.0" encoding="UTF-8"?>
<svg id="b" data-name="Camada 2" xmlns="http://www.w3.org/2000/svg" width="661.1" height="837.44" xmlns:xlink="http://www.w3.org/1999/xlink" viewBox="0 0 661.1 837.44">
  <defs>
    <style>
      .h {
        fill: url(#g);
      }

      .i {
        fill: url(#f);
      }

      .j {
        fill: url(#e);
      }

      .k {
        fill: #f60;
      }
    </style>
    <linearGradient id="e" data-name="Gradiente sem nome 78" x1="-105.08" y1="-428.36" x2="947.53" y2="1232.97" gradientUnits="userSpaceOnUse">
      <stop offset=".24" stop-color="#913a00"/>
      <stop offset=".29" stop-color="#9f3f00"/>
      <stop offset=".43" stop-color="#c14d00"/>
      <stop offset=".57" stop-color="#dc5800"/>
      <stop offset=".71" stop-color="#ef5f00"/>
      <stop offset=".85" stop-color="#fb6400"/>
      <stop offset="1" stop-color="#f60"/>
    </linearGradient>
    <linearGradient id="f" data-name="Gradiente sem nome 78" x1="397.02" y1="546.87" x2="572.72" y2="824.17" gradientTransform="translate(989.38) rotate(-180) scale(1 -1)" xlink:href="#e"/>
    <linearGradient id="g" data-name="Gradiente sem nome 78" x1="552.47" y1="5.61" x2="918.89" y2="256.76" gradientTransform="translate(989.38) rotate(-180) scale(1 -1)" xlink:href="#e"/>
  </defs>
  <g id="c" data-name="Proejto">
    <g id="d" data-name="Esquerda">
      <g>
        <g>
          <path class="j" d="M660.46,837.44c-110.04-.9-173.01-59.55-203.21-129.05-4.16-9.58-7.17-19.62-9.3-29.85-14.54-69.73-39.54-109.02-115.12-120.09,38.8.79,90.24-2.83,129.48,6.3,122.16,23.09,207.07,153.91,198.16,272.69Z"/>
          <path class="j" d="M84.51,347.4c-1.09,97.97,76.23,188.3,171.8,206.28,55.88,9.33,119.23,1.08,176.83,5.66,111.04,12.62,187.17,87.83,220.48,197.85-29.6-181.63-138.33-301.29-280.08-366.25-99.82-45.75-189.61-43.21-289.03-43.53Z"/>
        </g>
        <g>
          <path class="j" d="M245.45.62C329.69.01,407.01,62.29,433.61,140.51c16.2,51.64,8.48,72.7,10.49,165.23-55.79-156-188.6-60.36-316.29-111.92C61.59,167.08,13.09,102.15,2.95,31.16,1.26,19.14-.22,10.51.03,0l245.43.62Z"/>
          <path class="j" d="M660.31,471.89c-24.5.7-52.13.78-68.17-3.63-43.31-11.91-88.65-35.01-114.04-72.54-24.18-35.73-35.01-69.67-34.65-115.68.51-64.18,7.4-126.29-32.15-185.11-24.9-37.04-47.78-51.29-66.18-64.5-16.6-11.91-57.28-28.84-92.2-29.54,22.44-.11,74.05,2.35,83.36,2.62,50.05,1.47,97.38,13.95,141.13,38.64,21.57,11.91,42.3,24.85,60.84,40.78,34.65,29.13,57.78,57.47,80.35,96.65,19.85,34.47,39.59,96.24,41.08,142.92,1.67,52.49-.39,96.49.65,149.41Z"/>
        </g>
      </g>
      <g>
        <g>
          <path class="i" d="M660.46,837.44c-110.04-.9-173.01-59.55-203.21-129.05-4.16-9.58-7.17-19.62-9.3-29.85-14.54-69.73-39.54-109.02-115.12-120.09,38.8.79,90.24-2.83,129.48,6.3,122.16,23.09,207.07,153.91,198.16,272.69Z"/>
          <path class="k" d="M84.51,347.4c-1.09,97.97,76.23,188.3,171.8,206.28,55.88,9.33,119.23,1.08,176.83,5.66,111.04,12.62,187.17,87.83,220.48,197.85-29.6-181.63-138.33-301.29-280.08-366.25-99.82-45.75-189.61-43.21-289.03-43.53Z"/>
        </g>
        <g>
          <path class="h" d="M245.45.62C329.69.01,407.01,62.29,433.61,140.51c16.2,51.64,8.48,72.7,10.49,165.23-55.79-156-188.6-60.36-316.29-111.92C61.59,167.08,13.09,102.15,2.95,31.16,1.26,19.14-.22,10.51.03,0l245.43.62Z"/>
          <path class="k" d="M660.31,471.89c-24.5.7-52.13.78-68.17-3.63-43.31-11.91-88.65-35.01-114.04-72.54-24.18-35.73-35.01-69.67-34.65-115.68.51-64.18,7.4-126.29-32.15-185.11-24.9-37.04-47.78-51.29-66.18-64.5-16.6-11.91-57.28-28.84-92.2-29.54,22.44-.11,74.05,2.35,83.36,2.62,50.05,1.47,97.38,13.95,141.13,38.64,21.57,11.91,42.3,24.85,60.84,40.78,34.65,29.13,57.78,57.47,80.35,96.65,19.85,34.47,39.59,96.24,41.08,142.92,1.67,52.49-.39,96.49.65,149.41Z"/>
        </g>
      </g>
    </g>
  </g>
</svg>